<?xml version="1.0" encoding="UTF-8" standalone="no"?>
<svg
   xmlns:dc="http://purl.org/dc/elements/1.1/"
   xmlns:cc="http://creativecommons.org/ns#"
   xmlns:rdf="http://www.w3.org/1999/02/22-rdf-syntax-ns#"
   xmlns:svg="http://www.w3.org/2000/svg"
   xmlns="http://www.w3.org/2000/svg"
   id="svg8"
   version="1.1"
   viewBox="0 0 62.242836 11.885578"
   height="11.885578mm"
   width="62.242836mm">
  <defs
     id="defs2" />
  <metadata
     id="metadata5">
    <rdf:RDF>
      <cc:Work
         rdf:about="">
        <dc:format>image/svg+xml</dc:format>
        <dc:type
           rdf:resource="http://purl.org/dc/dcmitype/StillImage" />
        <dc:title></dc:title>
      </cc:Work>
    </rdf:RDF>
  </metadata>
  <g
     transform="translate(-53.530655,-118.11982)"
     id="layer1">
    <g
       id="flowRoot823"
       style="font-style:normal;font-variant:normal;font-weight:normal;font-stretch:normal;font-size:53.33333588px;line-height:1.25;font-family:'Ricty Diminished';-inkscape-font-specification:'Ricty Diminished';letter-spacing:0px;word-spacing:0px;fill:#000000;fill-opacity:1;stroke:none"
       transform="matrix(0.26458333,0,0,0.26458333,0.60135644,0.13363476)"
       aria-label="ATSUKAN">
      <path
         id="path858"
         style="font-size:53.33333588px"
         d="m 268.45893,471.75136 -4.69333,-12.69334 -4.26667,12.69334 z m -16.58666,12.64 11.73333,-33.86667 h 0.42667 l 12.8,33.81333 h -3.84 l -3.68,-9.70666 h -10.56 l -3.2,9.76 z" />
      <path
         id="path860"
         style="font-size:53.33333588px"
         d="m 279.39227,451.05802 h 23.04 v 3.36 h -9.81334 v 29.97334 h -3.78666 v -29.97334 h -9.44 z" />
      <path
         id="path862"
         style="font-size:53.33333588px"
         d="m 327.6056,455.05802 -2.34666,3.2 q -0.26667,-0.16 -0.26667,-0.48 0,-0.26666 -0.16,-0.48 -2.29333,-3.30666 -6.72,-3.30666 -2.72,0 -4.37333,1.44 -1.65334,1.38666 -1.65334,3.41333 0,2.98667 3.41334,4.96 0.69333,0.37333 4.8,2.13333 4.10666,1.76 5.81333,3.36 2.56,2.45334 2.56,5.97334 0,3.68 -2.77333,6.66666 -2.77334,2.93334 -8.32,2.93334 -6.45334,0 -10.40001,-4.26667 l 2.18667,-3.84 q 0.26667,0.10667 0.26667,0.53333 0,0.37334 0.16,0.58667 2.88,3.62667 7.89333,3.62667 3.36,0 5.33334,-1.81334 1.97333,-1.86666 1.97333,-4.21333 0,-2.77333 -2.82667,-4.58667 -1.01333,-0.64 -4.85333,-2.13333 -3.78667,-1.54667 -5.49333,-2.82667 -3.57334,-2.61333 -3.57334,-6.50666 0,-3.52 2.82667,-6.02667 2.88,-2.50667 7.30667,-2.50667 5.70666,0 9.22666,4.16 z" />
      <path
         id="path864"
         style="font-size:53.33333588px"
         d="m 333.73893,451.11136 h 4.21334 q 0.0533,0.10666 0.0533,0.26666 0,0.26667 -0.37333,0.74667 -0.21334,0.26667 -0.21334,0.69333 v 20.10667 q 0,3.14667 0.8,4.90667 0.85334,1.86666 2.56,2.93333 1.76,1.01333 3.78667,1.01333 2.02667,0 3.68,-1.01333 1.70667,-1.01333 2.61333,-2.88 0.85334,-1.81333 0.85334,-5.12 v -21.65333 h 3.57333 v 21.6 q 0,4.64 -1.33333,7.04 -1.33334,2.50666 -3.89334,3.84 -2.56,1.33333 -5.54666,1.33333 -3.04,0 -5.6,-1.33333 -2.50667,-1.33334 -3.89334,-3.84 -1.28,-2.4 -1.28,-6.88 z" />
      <path
         id="path866"
         style="font-size:53.33333588px"
         d="m 359.97894,451.05802 h 4.48 q 0.0533,0.21334 -0.32,0.74667 -0.16,0.26667 -0.16,0.64 v 13.97333 l 13.86667,-15.57333 q 1.12,0.26667 2.77333,0.26667 h 1.38667 l -12.58667,14.34666 13.44,18.93334 -4.74667,0.16 -11.52,-16.85334 -2.61333,2.88 v 13.76 h -4 z" />
      <path
         id="path868"
         style="font-size:53.33333588px"
         d="m 401.79228,471.75136 -4.69334,-12.69334 -4.26666,12.69334 z m -16.58667,12.64 11.73333,-33.86667 h 0.42667 l 12.8,33.81333 h -3.84 l -3.68,-9.70666 h -10.56 l -3.2,9.76 z" />
      <path
         id="path870"
         style="font-size:53.33333588px"
         d="m 413.73893,484.33802 v -33.22666 h 3.62667 l 13.97333,24.64 v -24.69334 h 3.94667 q 0.0533,0.26667 -0.16,0.69334 -0.21333,0.53333 -0.21333,0.74666 v 31.89334 h -2.93334 l -14.66666,-26.18667 v 26.13333 z" />
    </g>
    <flowRoot
       transform="scale(0.26458333)"
       style="font-style:normal;font-weight:normal;font-size:40px;line-height:1.25;font-family:sans-serif;letter-spacing:0px;word-spacing:0px;fill:#000000;fill-opacity:1;stroke:none"
       id="flowRoot839"
       xml:space="preserve"><flowRegion
         id="flowRegion841"><rect
           y="435.73398"
           x="196.78572"
           height="54.82143"
           width="53.214287"
           id="rect843" /></flowRegion><flowPara
         id="flowPara845" /></flowRoot>    <g
       id="flowRoot847"
       style="font-style:normal;font-weight:normal;font-size:40px;line-height:1.25;font-family:sans-serif;letter-spacing:0px;word-spacing:0px;fill:#000000;fill-opacity:1;stroke:none"
       transform="matrix(0.26458333,0,0,0.26458333,-0.42522322,1.4646577)"
       aria-label="ðŸ¶">
      <path
         id="path855"
         d="m 238.12695,454.92485 q 1.77735,1.69922 2.73438,3.84766 0.97656,2.12891 0.97656,4.58984 v 15.44922 q 0,1.15235 -0.44922,2.16797 -0.44922,1.01563 -1.23047,1.77734 -0.76172,0.76172 -1.79687,1.21094 -1.01563,0.44922 -2.14844,0.44922 h -11.23047 q -0.82031,0 -1.58203,-0.23437 -0.76172,-0.21485 -1.44531,-0.66407 -1.46485,1.11328 -3.22266,1.69922 -1.73828,0.60547 -3.57422,0.60547 -2.32422,0 -4.375,-0.89844 -2.03125,-0.8789 -3.55468,-2.40234 -1.52344,-1.52344 -2.42188,-3.57422 -0.87891,-2.03125 -0.87891,-4.35547 v -11.23047 h 15.44922 q 0,-2.46093 0.95703,-4.58984 0.95704,-2.12891 2.73438,-3.84766 -0.80078,-0.83984 -1.26953,-1.66015 -0.44922,-0.83985 -0.6836,-1.67969 -0.23437,-0.85938 -0.29296,-1.75781 -0.0586,-0.89844 -0.0586,-1.89453 v -1.42579 q -0.33203,-0.44921 -0.50781,-0.97656 -0.17578,-0.54687 -0.17578,-1.11328 0,-0.72266 0.27344,-1.36719 0.27343,-0.64453 0.74218,-1.11328 0.48828,-0.48828 1.11328,-0.76172 0.64454,-0.27343 1.36719,-0.27343 h 14.04297 q 0.72266,0 1.36719,0.27343 0.64453,0.27344 1.11328,0.76172 0.48828,0.46875 0.76172,1.11328 0.27344,0.64453 0.27344,1.36719 0,0.56641 -0.19532,1.11328 -0.17578,0.52735 -0.50781,0.97656 v 1.42579 q 0,0.99609 -0.0586,1.89453 -0.0586,0.89843 -0.29297,1.75781 -0.23438,0.83984 -0.70313,1.67969 -0.44922,0.82031 -1.25,1.66015 z m -15.95703,8.4375 h 16.85547 q 0,-1.13281 -0.25391,-2.08984 -0.2539,-0.95703 -0.72265,-1.79688 -0.46875,-0.83984 -1.11328,-1.60156 -0.64453,-0.76172 -1.42578,-1.52344 -0.3125,-0.29296 -0.50782,-0.625 -0.19531,-0.33203 -0.19531,-0.78125 0,-0.41015 0.19531,-0.74218 0.21485,-0.35157 0.52735,-0.6836 0.3125,-0.33203 0.68359,-0.70312 0.37109,-0.3711 0.68359,-0.85938 0.3125,-0.48828 0.50782,-1.11328 0.21484,-0.64453 0.21484,-1.52344 v -4.19921 q 0.29297,0 0.48828,-0.19532 0.21485,-0.21484 0.21485,-0.50781 0,-0.29297 -0.21485,-0.48828 -0.19531,-0.21484 -0.48828,-0.21484 h -14.04297 q -0.29297,0 -0.50781,0.21484 -0.19531,0.19531 -0.19531,0.48828 0,0.29297 0.19531,0.50781 0.21484,0.19532 0.50781,0.19532 v 4.19921 q 0,0.87891 0.19531,1.52344 0.21485,0.625 0.52735,1.11328 0.3125,0.48828 0.68359,0.85938 0.3711,0.37109 0.6836,0.70312 0.3125,0.33203 0.50781,0.6836 0.21484,0.33203 0.21484,0.74218 0,0.44922 -0.19531,0.78125 -0.19531,0.33204 -0.50781,0.625 -0.80078,0.76172 -1.44532,1.52344 -0.64453,0.76172 -1.11328,1.60156 -0.44922,0.83985 -0.70312,1.79688 -0.25391,0.95703 -0.25391,2.08984 z m 16.85547,15.44922 V 467.5811 h -14.04297 v 7.01172 q 0,1.67969 -0.52734,3.22266 -0.52735,1.54297 -1.58203,2.85156 0.39062,0.44922 0.9375,0.68359 0.5664,0.25391 1.17187,0.25391 h 11.23047 q 0.58594,0 1.09375,-0.21484 0.50781,-0.21485 0.87891,-0.60547 0.39062,-0.3711 0.60547,-0.87891 0.23437,-0.50781 0.23437,-1.09375 z m -23.86719,4.19922 q 1.58203,0 3.08594,-0.64453 1.52344,-0.625 2.69531,-1.71875 1.19141,-1.07422 1.91407,-2.53906 0.72265,-1.44532 0.72265,-3.08594 v -3.24219 h -16.83594 v 3.24219 q 0,1.62109 0.72266,3.06641 0.72266,1.46484 1.91406,2.55859 1.19141,1.09375 2.69532,1.71875 1.5039,0.64453 3.08593,0.64453 z m 8.41797,-15.42969 v -1.40625 h -16.83594 v 1.40625 z m -16.83594,2.79297 h 16.83594 v -1.38672 h -16.83594 z m 32.28516,-4.19922 v -1.40625 h -14.04297 v 1.40625 z" />
    </g>
  </g>
</svg>
